<svg width="100" height="100" fill="none" xmlns="http://www.w3.org/2000/svg"><g filter="url(#a)"><rect x="10" y="10" width="80" height="80" rx="40" fill="#fff"/></g><path fill-rule="evenodd" clip-rule="evenodd" d="M64.351 42.078a2 2 0 0 1 .123 2.826l-11 12a2 2 0 0 1-2.791.154l-6.592-5.768-7.677 7.677a2 2 0 0 1-2.828-2.829l9-9a2 2 0 0 1 2.731-.09l6.53 5.712 9.679-10.559a2 2 0 0 1 2.825-.123Z" fill="#1A72E7"/><path fill-rule="evenodd" clip-rule="evenodd" d="M56 41.553a2 2 0 0 1 2-2h7a2 2 0 0 1 2 2v7a2 2 0 1 1-4 0v-5h-5a2 2 0 0 1-2-2Z" fill="#1A72E7"/><defs><filter id="a" x="0" y="0" width="100" height="100" filterUnits="userSpaceOnUse" color-interpolation-filters="sRGB"><feFlood flood-opacity="0" result="BackgroundImageFix"/><feColorMatrix in="SourceAlpha" values="0 0 0 0 0 0 0 0 0 0 0 0 0 0 0 0 0 0 127 0" result="hardAlpha"/><feOffset/><feGaussianBlur stdDeviation="5"/><feComposite in2="hardAlpha" operator="out"/><feColorMatrix values="0 0 0 0 0.373611 0 0 0 0 0.550698 0 0 0 0 0.666667 0 0 0 0.1 0"/><feBlend in2="BackgroundImageFix" result="effect1_dropShadow_8419_23281"/><feBlend in="SourceGraphic" in2="effect1_dropShadow_8419_23281" result="shape"/></filter></defs></svg>