<svg width="100" height="100" fill="none" xmlns="http://www.w3.org/2000/svg"><g filter="url(#a)"><rect x="10" y="10" width="80" height="80" rx="40" fill="#fff"/></g><path fill-rule="evenodd" clip-rule="evenodd" d="M39 52c0 6.075 4.925 11 11 11s11-4.925 11-11h4c0 8.284-6.716 15-15 15-8.284 0-15-6.716-15-15h4Z" fill="#1A72E7"/><path d="M41 44a3 3 0 1 1-6 0 3 3 0 0 1 6 0ZM65 44a3 3 0 1 1-6 0 3 3 0 0 1 6 0Z" fill="#1A72E7"/><defs><filter id="a" x="0" y="0" width="100" height="100" filterUnits="userSpaceOnUse" color-interpolation-filters="sRGB"><feFlood flood-opacity="0" result="BackgroundImageFix"/><feColorMatrix in="SourceAlpha" values="0 0 0 0 0 0 0 0 0 0 0 0 0 0 0 0 0 0 127 0" result="hardAlpha"/><feOffset/><feGaussianBlur stdDeviation="5"/><feComposite in2="hardAlpha" operator="out"/><feColorMatrix values="0 0 0 0 0.373611 0 0 0 0 0.550698 0 0 0 0 0.666667 0 0 0 0.1 0"/><feBlend in2="BackgroundImageFix" result="effect1_dropShadow_8419_23309"/><feBlend in="SourceGraphic" in2="effect1_dropShadow_8419_23309" result="shape"/></filter></defs></svg>