<svg width="100" height="100" fill="none" xmlns="http://www.w3.org/2000/svg"><g filter="url(#a)"><rect x="10" y="10" width="80" height="80" rx="40" fill="#fff"/></g><path fill-rule="evenodd" clip-rule="evenodd" d="M34 45a6 6 0 0 1 6-6h20a6 6 0 0 1 6 6v5.5h-4V45a2 2 0 0 0-2-2H40a2 2 0 0 0-2 2v11a2 2 0 0 0 2 2h8.727v4H40a6 6 0 0 1-6-6V45Z" fill="#1A72E7"/><path d="m51.5 60.75 13.586-13.133a2 2 0 0 1 2.804.023l4.172 4.172a2 2 0 0 1-.025 2.852L58.98 67.286a2 2 0 0 1-1.142.547l-6.062.758a1 1 0 0 1-1.117-1.117l.84-6.724Z" fill="#fff"/><path fill-rule="evenodd" clip-rule="evenodd" d="m55.294 62.646-.187 1.497 1.572-.196 11.116-10.745-1.343-1.343-11.158 10.787Zm9.792-15.03L51.5 60.75l-.84 6.724a1 1 0 0 0 1.116 1.117l6.062-.758a2 2 0 0 0 1.142-.547l13.057-12.622a2 2 0 0 0 .025-2.852L67.89 47.64a2 2 0 0 0-2.804-.023ZM50 37a3 3 0 0 1 3 3 2 2 0 1 0 4 0 7 7 0 1 0-14 0 2 2 0 1 0 4 0 3 3 0 0 1 3-3Z" fill="#1A72E7"/><defs><filter id="a" x="0" y="0" width="100" height="100" filterUnits="userSpaceOnUse" color-interpolation-filters="sRGB"><feFlood flood-opacity="0" result="BackgroundImageFix"/><feColorMatrix in="SourceAlpha" values="0 0 0 0 0 0 0 0 0 0 0 0 0 0 0 0 0 0 127 0" result="hardAlpha"/><feOffset/><feGaussianBlur stdDeviation="5"/><feComposite in2="hardAlpha" operator="out"/><feColorMatrix values="0 0 0 0 0.373611 0 0 0 0 0.550698 0 0 0 0 0.666667 0 0 0 0.1 0"/><feBlend in2="BackgroundImageFix" result="effect1_dropShadow_8419_23273"/><feBlend in="SourceGraphic" in2="effect1_dropShadow_8419_23273" result="shape"/></filter></defs></svg>