<svg width="100" height="100" fill="none" xmlns="http://www.w3.org/2000/svg"><g filter="url(#a)"><rect x="10" y="10" width="80" height="80" rx="40" fill="#fff"/></g><mask id="b" fill="#fff"><path fill-rule="evenodd" clip-rule="evenodd" d="M59.487 37H40.513a2 2 0 0 0-1.996 1.889l-1.17 21A2 2 0 0 0 39.344 62h21.313a2 2 0 0 0 1.997-2.111l-1.17-21A2 2 0 0 0 59.487 37Zm-18.974-4a6 6 0 0 0-5.99 5.666l-1.17 21A6 6 0 0 0 39.343 66h21.314a6 6 0 0 0 5.99-6.334l-1.169-21A6 6 0 0 0 59.488 33H40.513Z"/><path fill-rule="evenodd" clip-rule="evenodd" d="M50 45a3 3 0 0 0 3-3 2 2 0 1 1 4 0 7 7 0 1 1-14 0 2 2 0 1 1 4 0 3 3 0 0 0 3 3Z"/></mask><path fill-rule="evenodd" clip-rule="evenodd" d="M59.487 37H40.513a2 2 0 0 0-1.996 1.889l-1.17 21A2 2 0 0 0 39.344 62h21.313a2 2 0 0 0 1.997-2.111l-1.17-21A2 2 0 0 0 59.487 37Zm-18.974-4a6 6 0 0 0-5.99 5.666l-1.17 21A6 6 0 0 0 39.343 66h21.314a6 6 0 0 0 5.99-6.334l-1.169-21A6 6 0 0 0 59.488 33H40.513Z" fill="#1B1E26"/><path fill-rule="evenodd" clip-rule="evenodd" d="M50 45a3 3 0 0 0 3-3 2 2 0 1 1 4 0 7 7 0 1 1-14 0 2 2 0 1 1 4 0 3 3 0 0 0 3 3Z" fill="#1B1E26"/><path d="m38.517 38.889-3.994-.223 3.994.223Zm-1.17 21-3.994-.223 3.994.223Zm25.307 0 3.994-.223-3.994.223Zm-1.17-21-3.993.222 3.993-.222Zm-26.961-.223 3.994.223-3.994-.223Zm-1.17 21-3.994-.222 3.994.222Zm33.295 0-3.994.223 3.994-.223Zm-1.17-21-3.994.223 3.994-.223ZM53.001 42h4-4Zm-3 3v4-4Zm7-3h-4 4Zm-7 7v-4 4Zm-7-7h-4 4Zm4 0h4-4Zm-6.487-1h18.973v-8H40.513v8Zm1.996-1.889A2 2 0 0 1 40.514 41v-8a6 6 0 0 0-5.991 5.666l7.987.445Zm-1.17 21 1.17-21-7.987-.445-1.17 21 7.988.445ZM39.345 58a2 2 0 0 1 1.997 2.111l-7.988-.445A6 6 0 0 0 39.343 66v-8Zm21.313 0H39.344v8h21.313v-8Zm-1.997 2.111A2 2 0 0 1 60.657 58v8a6 6 0 0 0 5.99-6.334l-7.987.445Zm-1.17-21 1.17 21 7.988-.445-1.17-21-7.987.445ZM59.488 41a2 2 0 0 1-1.996-1.889l7.987-.445A6 6 0 0 0 59.488 33v8Zm-20.97-2.111A2 2 0 0 1 40.513 37v-8a10 10 0 0 0-9.984 9.444l7.988.445Zm-1.17 21 1.17-21-7.988-.445-1.17 21 7.988.445ZM39.344 62a2 2 0 0 1-1.997-2.111l-7.988-.445C29.04 65.176 33.603 70 39.344 70v-8Zm21.313 0H39.344v8h21.313v-8Zm1.997-2.111A2 2 0 0 1 60.657 62v8c5.741 0 10.304-4.824 9.985-10.556l-7.988.445Zm-1.17-21 1.17 21 7.988-.445-1.17-21-7.988.445ZM59.487 37a2 2 0 0 1 1.997 1.889l7.988-.445A10 10 0 0 0 59.488 29v8Zm-18.974 0h18.974v-8H40.513v8Zm8.488 5a1 1 0 0 1 1-1v8a7 7 0 0 0 7-7h-8Zm6-6a6 6 0 0 0-6 6h8a2 2 0 0 1-2 2v-8Zm6 6a6 6 0 0 0-6-6v8a2 2 0 0 1-2-2h8ZM50 53c6.075 0 11-4.925 11-11h-8a3 3 0 0 1-3 3v8ZM39 42c0 6.075 4.924 11 11 11v-8a3 3 0 0 1-3-3h-8Zm6-6a6 6 0 0 0-6 6h8a2 2 0 0 1-2 2v-8Zm6 6a6 6 0 0 0-6-6v8a2 2 0 0 1-2-2h8Zm-1-1a1 1 0 0 1 1 1h-8a7 7 0 0 0 7 7v-8Z" fill="#1A72E7" mask="url(#b)"/><defs><filter id="a" x="0" y="0" width="100" height="100" filterUnits="userSpaceOnUse" color-interpolation-filters="sRGB"><feFlood flood-opacity="0" result="BackgroundImageFix"/><feColorMatrix in="SourceAlpha" values="0 0 0 0 0 0 0 0 0 0 0 0 0 0 0 0 0 0 127 0" result="hardAlpha"/><feOffset/><feGaussianBlur stdDeviation="5"/><feComposite in2="hardAlpha" operator="out"/><feColorMatrix values="0 0 0 0 0.373611 0 0 0 0 0.550698 0 0 0 0 0.666667 0 0 0 0.1 0"/><feBlend in2="BackgroundImageFix" result="effect1_dropShadow_8419_23316"/><feBlend in="SourceGraphic" in2="effect1_dropShadow_8419_23316" result="shape"/></filter></defs></svg>