<svg width="100" height="100" fill="none" xmlns="http://www.w3.org/2000/svg"><g filter="url(#a)"><rect x="10" y="10" width="80" height="80" rx="40" fill="#fff"/></g><path fill-rule="evenodd" clip-rule="evenodd" d="M59 37H41a2 2 0 0 0-2 2v22a2 2 0 0 0 2 2h18a2 2 0 0 0 2-2V39a2 2 0 0 0-2-2Zm-18-4a6 6 0 0 0-6 6v22a6 6 0 0 0 6 6h18a6 6 0 0 0 6-6V39a6 6 0 0 0-6-6H41Z" fill="#1A72E7"/><path d="M44 52h12v3H44v-3ZM44 45h12v3H44v-3Z" fill="#1A72E7"/><defs><filter id="a" x="0" y="0" width="100" height="100" filterUnits="userSpaceOnUse" color-interpolation-filters="sRGB"><feFlood flood-opacity="0" result="BackgroundImageFix"/><feColorMatrix in="SourceAlpha" values="0 0 0 0 0 0 0 0 0 0 0 0 0 0 0 0 0 0 127 0" result="hardAlpha"/><feOffset/><feGaussianBlur stdDeviation="5"/><feComposite in2="hardAlpha" operator="out"/><feColorMatrix values="0 0 0 0 0.373611 0 0 0 0 0.550698 0 0 0 0 0.666667 0 0 0 0.1 0"/><feBlend in2="BackgroundImageFix" result="effect1_dropShadow_8419_23290"/><feBlend in="SourceGraphic" in2="effect1_dropShadow_8419_23290" result="shape"/></filter></defs></svg>