<svg width="100" height="100" fill="none" xmlns="http://www.w3.org/2000/svg"><g filter="url(#a)"><rect x="10" y="10" width="80" height="80" rx="40" fill="#fff"/></g><path fill-rule="evenodd" clip-rule="evenodd" d="M51.92 38.203a3 3 0 0 0-3.84 0l-13.8 11.5a2 2 0 1 1-2.56-3.074L45.519 35.13a7 7 0 0 1 8.962 0l13.8 11.5a2 2 0 1 1-2.561 3.072l-13.8-11.499Z" fill="#1A72E7"/><path fill-rule="evenodd" clip-rule="evenodd" d="M60 60.386V42.999h4v17.387c0 3.627-3.039 6.613-6.729 6.613H42.73C39.039 67 36 64.013 36 60.386V42.999h4v17.387c0 1.352 1.182 2.613 2.729 2.613H57.27c1.547 0 2.73-1.26 2.73-2.613Z" fill="#1A72E7"/><path d="M51.714 59h-3.428C47.643 59 47 58.544 47 57.907V54.09c0-.545.536-1.09 1.286-1.09h3.428c.643 0 1.286.454 1.286 1.09v3.818c0 .637-.643 1.091-1.286 1.091Z" fill="#1A72E7"/><defs><filter id="a" x="0" y="0" width="100" height="100" filterUnits="userSpaceOnUse" color-interpolation-filters="sRGB"><feFlood flood-opacity="0" result="BackgroundImageFix"/><feColorMatrix in="SourceAlpha" values="0 0 0 0 0 0 0 0 0 0 0 0 0 0 0 0 0 0 127 0" result="hardAlpha"/><feOffset/><feGaussianBlur stdDeviation="5"/><feComposite in2="hardAlpha" operator="out"/><feColorMatrix values="0 0 0 0 0 0 0 0 0 0 0 0 0 0 0 0 0 0 0.1 0"/><feBlend in2="BackgroundImageFix" result="effect1_dropShadow_8419_23381"/><feBlend in="SourceGraphic" in2="effect1_dropShadow_8419_23381" result="shape"/></filter></defs></svg>