<svg width="100" height="100" fill="none" xmlns="http://www.w3.org/2000/svg"><g filter="url(#a)"><rect x="10" y="10" width="80" height="80" rx="40" fill="#fff"/></g><g filter="url(#b)"><rect x="10" y="10" width="80" height="80" rx="40" fill="#fff"/></g><path fill-rule="evenodd" clip-rule="evenodd" d="M39.9 40.585a2 2 0 0 1 0 2.828l-5.657 5.657a2 2 0 0 0 0 2.828l5.656 5.657a2 2 0 0 1-2.828 2.829l-5.657-5.657a6 6 0 0 1 0-8.485l5.657-5.657a2 2 0 0 1 2.828 0ZM60.071 40.585a2 2 0 0 0 0 2.828l5.657 5.657a2 2 0 0 1 0 2.828l-5.657 5.657a2 2 0 1 0 2.828 2.829l5.657-5.657a6 6 0 0 0 0-8.485L62.9 40.585a2 2 0 0 0-2.828 0ZM53.65 40.608a2 2 0 0 1 1.242 2.542l-5.5 16a2 2 0 1 1-3.783-1.3l5.5-16a2 2 0 0 1 2.541-1.242Z" fill="#1A72E7"/><defs><filter id="a" x="0" y="0" width="100" height="100" filterUnits="userSpaceOnUse" color-interpolation-filters="sRGB"><feFlood flood-opacity="0" result="BackgroundImageFix"/><feColorMatrix in="SourceAlpha" values="0 0 0 0 0 0 0 0 0 0 0 0 0 0 0 0 0 0 127 0" result="hardAlpha"/><feOffset/><feGaussianBlur stdDeviation="5"/><feComposite in2="hardAlpha" operator="out"/><feColorMatrix values="0 0 0 0 0.373611 0 0 0 0 0.550698 0 0 0 0 0.666667 0 0 0 0.1 0"/><feBlend in2="BackgroundImageFix" result="effect1_dropShadow_8419_23300"/><feBlend in="SourceGraphic" in2="effect1_dropShadow_8419_23300" result="shape"/></filter><filter id="b" x="0" y="0" width="100" height="100" filterUnits="userSpaceOnUse" color-interpolation-filters="sRGB"><feFlood flood-opacity="0" result="BackgroundImageFix"/><feColorMatrix in="SourceAlpha" values="0 0 0 0 0 0 0 0 0 0 0 0 0 0 0 0 0 0 127 0" result="hardAlpha"/><feOffset/><feGaussianBlur stdDeviation="5"/><feComposite in2="hardAlpha" operator="out"/><feColorMatrix values="0 0 0 0 0.373611 0 0 0 0 0.550698 0 0 0 0 0.666667 0 0 0 0.1 0"/><feBlend in2="BackgroundImageFix" result="effect1_dropShadow_8419_23300"/><feBlend in="SourceGraphic" in2="effect1_dropShadow_8419_23300" result="shape"/></filter></defs></svg>